<?xml version="1.0" standalone="no"?>
<!DOCTYPE svg PUBLIC "-//W3C//DTD SVG 20010904//EN"
 "http://www.w3.org/TR/2001/REC-SVG-20010904/DTD/svg10.dtd">
<svg version="1.0" xmlns="http://www.w3.org/2000/svg"
 width="225.000000pt" height="225.000000pt" viewBox="0 0 225.000000 225.000000"
 preserveAspectRatio="xMidYMid meet">
<metadata>
Created by potrace 1.16, written by Peter Selinger 2001-2019
</metadata>
<g transform="translate(0.000000,225.000000) scale(0.100000,-0.100000)"
fill="#000000" stroke="none">
<path d="M474 2172 c-6 -4 -43 -88 -82 -187 l-72 -180 0 -412 0 -413 -30 0
c-22 0 -33 -6 -40 -22 -6 -13 -48 -146 -95 -296 l-85 -274 0 -147 c0 -101 4
-151 12 -159 17 -17 239 -17 256 0 7 7 12 38 12 70 l0 58 320 0 319 0 3 -67 3
-68 130 0 130 0 3 68 3 67 319 0 320 0 0 -58 c0 -32 5 -63 12 -70 17 -17 239
-17 256 0 8 8 12 58 12 159 l0 147 -85 274 c-47 150 -89 283 -95 296 -7 16
-18 22 -40 22 l-30 0 0 413 0 412 -72 180 c-39 99 -76 183 -82 187 -14 10
-1288 10 -1302 0z m616 -117 l0 -55 -305 0 c-168 0 -305 3 -305 8 0 4 8 28 17
55 l17 47 288 0 288 0 0 -55z m663 8 c9 -27 17 -51 17 -55 0 -5 -137 -8 -305
-8 l-305 0 0 55 0 55 288 0 288 0 17 -47z m-663 -183 l0 -50 -340 0 c-187 0
-340 3 -340 7 0 4 7 27 16 50 l17 43 323 0 324 0 0 -50z m734 7 c9 -23 16 -46
16 -50 0 -4 -153 -7 -340 -7 l-340 0 0 50 0 50 324 0 323 0 17 -43z m-734
-447 l0 -320 -350 0 -350 0 0 320 0 320 350 0 350 0 0 -320z m770 5 l0 -315
-350 0 -350 0 0 315 0 315 350 0 350 0 0 -315z m0 -705 l0 -320 -350 0 -350 0
0 320 0 320 350 0 350 0 0 -320z m-770 -5 l0 -315 -350 0 -350 0 0 315 0 315
350 0 350 0 0 -315z"/>
<path d="M472 1678 c-8 -8 -12 -49 -12 -119 0 -88 3 -108 16 -113 30 -12 239
-7 252 6 16 16 16 210 0 226 -8 8 -51 12 -128 12 -77 0 -120 -4 -128 -12z
m198 -113 l0 -55 -70 0 -70 0 0 55 0 55 70 0 70 0 0 -55z"/>
<path d="M1242 1678 c-16 -16 -16 -210 0 -226 13 -13 222 -18 252 -6 13 5 16
25 16 113 0 70 -4 111 -12 119 -8 8 -51 12 -128 12 -77 0 -120 -4 -128 -12z"/>
<path d="M1237 974 c-4 -4 -7 -53 -7 -109 0 -75 4 -106 14 -114 9 -8 55 -11
137 -9 l124 3 0 115 0 115 -131 3 c-71 1 -133 -1 -137 -4z"/>
<path d="M464 967 c-2 -7 -3 -60 -2 -118 l3 -104 124 -3 c84 -2 128 1 137 9
11 9 14 36 12 118 l-3 106 -133 3 c-104 2 -134 0 -138 -11z"/>
</g>
</svg>
